<?xml version="1.0" standalone="no"?>
<!DOCTYPE svg PUBLIC "-//W3C//DTD SVG 20010904//EN"
 "http://www.w3.org/TR/2001/REC-SVG-20010904/DTD/svg10.dtd">
<svg version="1.0" xmlns="http://www.w3.org/2000/svg"
 width="512.000000pt" height="512.000000pt" viewBox="0 0 512.000000 512.000000"
 preserveAspectRatio="xMidYMid meet">
<metadata>
Created by potrace 1.16, written by Peter Selinger 2001-2019
</metadata>
<g transform="translate(0.000000,512.000000) scale(0.100000,-0.100000)"
fill="#000000" stroke="none">
<path d="M3560 4520 c-33 -33 -20 -100 20 -100 19 0 20 -7 20 -132 0 -73 -4
-138 -8 -144 -4 -7 -46 -24 -94 -39 -82 -26 -105 -43 -78 -60 18 -11 11 -25
-17 -36 -24 -9 -30 -7 -49 16 -11 14 -33 29 -49 34 -22 5 -39 23 -64 67 -56
96 -161 194 -261 242 -128 62 -197 75 -385 75 -88 0 -189 -5 -225 -12 -57 -11
-171 -42 -207 -57 -19 -8 -16 39 4 74 16 28 16 31 0 56 -20 30 -47 33 -70 8
-21 -23 -21 -42 -2 -68 8 -10 15 -35 15 -55 0 -33 -4 -38 -74 -82 -40 -26 -76
-47 -80 -47 -13 0 -5 145 9 164 20 26 19 49 -3 69 -46 42 -118 -4 -94 -59 7
-13 19 -27 27 -30 12 -5 15 -25 15 -99 0 -81 -3 -94 -21 -111 -26 -23 -65 -88
-80 -135 -7 -19 -25 -49 -41 -67 -16 -19 -31 -46 -34 -62 -6 -30 -26 -40 -77
-40 -38 0 -82 -46 -97 -101 -8 -27 -11 -87 -8 -155 4 -101 7 -118 36 -177 35
-71 58 -91 125 -108 36 -9 48 -17 58 -41 20 -49 83 -141 125 -181 67 -65 187
-113 377 -152 59 -12 19 -55 -52 -55 -146 0 -274 -73 -391 -225 -39 -51 -42
-52 -100 -58 -249 -22 -384 -292 -264 -529 28 -56 81 -118 99 -118 11 0 9 -15
-7 -68 -11 -37 -21 -86 -22 -110 -2 -36 -6 -45 -32 -61 -48 -29 -130 -128
-170 -205 -20 -39 -58 -107 -85 -151 -68 -114 -89 -175 -95 -271 -5 -77 -4
-83 17 -98 l23 -16 -21 -37 c-26 -47 -41 -117 -49 -228 -4 -46 -11 -82 -15
-79 -5 3 -16 1 -26 -4 -11 -7 30 -12 131 -17 227 -11 266 -1 266 71 0 18 14
58 31 90 23 42 32 73 32 107 1 30 5 47 13 47 6 0 14 6 17 14 3 7 21 16 39 20
72 13 164 107 231 237 19 35 36 71 39 79 3 11 12 10 51 -8 44 -21 60 -22 289
-22 298 1 367 8 450 47 71 34 194 120 312 218 l78 65 37 -29 c20 -15 54 -38
76 -50 l40 -22 -42 6 c-50 8 -65 1 -157 -77 -79 -68 -254 -186 -304 -207 -30
-13 -35 -12 -56 8 -24 22 -28 23 -300 22 -152 0 -281 -3 -286 -6 -6 -3 -10
-22 -10 -41 0 -46 29 -74 78 -74 36 0 38 -2 49 -42 7 -24 15 -51 18 -60 6 -16
1 -18 -40 -18 -91 0 -173 -64 -240 -186 -20 -38 -51 -91 -67 -118 -16 -27 -25
-53 -20 -58 9 -9 1401 -12 1426 -2 15 6 22 -10 17 -38 -1 -10 334 -8 374 2
l30 7 -32 8 -31 7 43 64 c25 35 50 82 56 104 7 22 16 40 20 40 13 0 97 173
104 215 4 22 19 61 34 87 21 38 31 48 52 48 69 0 137 169 126 312 -6 66 -44
165 -73 189 -11 9 -11 14 1 26 23 22 19 53 -26 210 l-41 144 22 51 c47 109 35
270 -29 383 -40 72 -176 191 -228 199 -34 6 -42 13 -61 52 -31 63 -96 130
-146 149 -23 9 -76 22 -117 29 l-74 12 -3 36 c-2 29 2 38 23 52 39 26 75 126
45 126 -5 0 -10 -15 -10 -33 0 -23 -8 -41 -25 -57 -23 -22 -33 -24 -108 -21
-99 3 -116 -8 -98 -61 10 -28 9 -35 -6 -45 -22 -16 -43 -17 -47 0 -2 6 -8 33
-14 59 -7 26 -13 52 -14 58 -2 6 29 22 69 34 39 13 87 33 106 45 36 22 127
114 127 128 0 5 28 14 61 20 76 15 123 50 163 123 53 97 45 268 -16 353 -12
16 -43 43 -70 61 -41 26 -53 41 -68 83 l-18 51 44 12 c57 16 72 34 50 59 -16
17 -14 19 44 35 33 9 72 28 88 41 l27 23 -3 142 c-2 113 1 145 13 163 22 31
19 53 -11 76 -33 26 -49 26 -74 1z m40 -20 c0 -5 -4 -10 -10 -10 -5 0 -10 5
-10 10 0 6 5 10 10 10 6 0 10 -4 10 -10z m-907 -97 c-7 -2 -21 -2 -30 0 -10 3
-4 5 12 5 17 0 24 -2 18 -5z m-72 -18 c100 -15 186 -43 225 -74 l23 -18 -34
-16 c-19 -9 -74 -54 -122 -100 l-89 -84 -139 -6 c-77 -4 -202 -12 -277 -19
-182 -15 -187 -10 -152 141 14 66 17 69 62 94 89 48 259 91 377 96 17 0 73 -6
126 -14z m254 -16 c72 -24 188 -95 232 -141 33 -35 103 -137 103 -151 0 -4
-21 -7 -47 -5 -46 3 -47 3 -91 78 -24 41 -59 94 -78 117 -41 49 -129 96 -224
118 l-65 15 55 -6 c30 -3 82 -14 115 -25z m109 -152 c47 -67 70 -107 61 -107
-3 0 -26 33 -51 73 -25 39 -62 87 -82 106 -36 32 -36 32 -5 11 18 -12 53 -49
77 -83z m-4 -68 c27 -48 45 -67 76 -83 l42 -21 -48 -52 c-82 -89 -93 -131 -97
-383 -2 -121 -9 -227 -15 -243 -13 -33 -38 -48 -138 -77 -85 -25 -106 -40
-115 -81 l-6 -29 -59 30 -58 29 -204 -10 -203 -11 -30 -29 c-38 -36 -70 -37
-135 -4 -62 32 -115 84 -123 122 -17 88 -28 305 -25 503 4 258 10 282 91 364
42 41 104 82 113 74 2 -2 -3 -28 -11 -58 -37 -139 -13 -166 138 -150 52 5 159
12 238 15 237 10 221 5 319 100 47 46 101 92 120 104 l35 22 30 -35 c17 -18
46 -62 65 -97z m315 -140 c21 -10 35 -28 48 -63 9 -27 16 -50 14 -53 -2 -2
-16 1 -31 7 -40 15 -123 12 -156 -5 -41 -21 -74 -69 -102 -145 -20 -57 -23
-83 -23 -215 0 -144 1 -152 28 -208 28 -57 45 -72 101 -93 l29 -10 -34 -22
c-37 -23 -273 -91 -404 -117 -70 -14 -86 -14 -127 -1 -37 11 -71 12 -155 6
-60 -5 -171 -10 -248 -12 -139 -3 -141 -3 -205 28 -69 33 -133 82 -152 118 -6
12 9 3 36 -22 57 -52 117 -81 170 -82 31 0 44 6 70 34 l31 35 170 8 170 8 60
-31 c101 -52 112 -54 195 -32 41 10 98 30 126 43 57 25 74 55 74 130 0 22 3
150 7 285 8 239 9 246 35 301 47 95 102 132 188 126 30 -2 68 -10 85 -18z
m-1492 -369 c4 -298 -5 -322 -22 -62 -10 145 -8 262 6 342 10 55 12 23 16
-280z m1387 192 c-51 -55 -75 -133 -75 -249 0 -60 -3 -84 -8 -70 -5 12 -7 67
-5 122 4 108 24 164 75 211 42 39 53 27 13 -14z m-1474 -9 c-18 -81 -28 -208
-22 -280 5 -69 4 -83 -9 -83 -22 0 -38 74 -39 185 -1 146 16 205 61 205 12 0
14 -7 9 -27z m-87 -12 c-6 -16 -14 -76 -17 -133 -8 -101 -8 -102 -15 -47 -9
61 5 172 24 195 17 21 19 17 8 -15z m1756 19 c19 -8 18 -9 -4 -9 -33 -1 -85
-60 -105 -117 -24 -72 -21 -178 8 -239 22 -47 51 -83 61 -73 2 2 -8 33 -22 68
-61 149 -16 319 89 336 48 8 90 -29 118 -104 27 -71 23 -163 -10 -240 -32 -73
-69 -102 -130 -102 -63 0 -90 11 -139 56 -55 49 -53 9 3 -56 17 -21 15 -20
-11 4 -47 42 -73 113 -80 215 -7 109 12 184 61 235 30 33 38 36 87 35 30 0 63
-4 74 -9z m-760 -789 c26 -10 -119 -21 -260 -19 l-110 1 145 8 c80 5 154 10
165 12 31 6 39 6 60 -2z m625 -47 l0 -35 -47 3 c-42 3 -48 6 -60 36 l-13 32
60 0 60 0 0 -36z m-325 -24 c-16 -4 -55 -7 -85 -7 l-55 0 60 7 c33 4 71 7 85
7 22 1 21 0 -5 -7z m10 -62 c-16 -5 -154 -11 -305 -13 l-275 -3 269 8 c148 5
276 11 285 13 34 9 56 5 26 -5z m235 -43 c-52 -18 -135 -49 -183 -70 -49 -20
-91 -34 -94 -31 -8 8 -9 7 77 46 97 43 238 89 270 89 14 0 -18 -15 -70 -34z
m293 1 c18 -7 41 -23 51 -35 19 -21 19 -21 -5 -22 -23 -1 -23 -1 5 -13 27 -12
24 -13 -49 -19 -189 -14 -343 -153 -417 -376 -30 -91 -32 -104 -32 -251 -1
-144 1 -161 27 -233 34 -97 62 -142 122 -195 50 -44 94 -58 151 -49 33 6 34 5
27 -21 -3 -15 -14 -49 -23 -77 -17 -49 -18 -50 -55 -48 -55 4 -118 38 -184 98
-114 106 -145 203 -145 450 0 190 12 288 55 421 33 103 73 158 153 209 62 39
181 83 256 94 44 7 48 9 19 10 -46 1 -175 -32 -231 -60 -161 -81 -208 -158
-264 -439 -45 -229 -35 -419 30 -580 14 -34 22 -68 19 -76 -7 -20 -246 -210
-316 -252 -78 -47 -152 -55 -447 -50 -276 5 -296 10 -328 76 -25 48 -52 139
-102 342 -87 352 -103 516 -62 643 45 136 181 323 292 400 l45 31 -38 -43
c-25 -27 -37 -50 -35 -64 l3 -22 402 0 c301 0 405 3 414 12 8 8 27 10 54 6 35
-4 61 3 161 45 132 55 199 78 265 91 68 14 146 12 182 -3z m-653 -26 c-19 -5
-107 -11 -195 -14 l-160 -5 125 9 c69 5 145 11 170 13 80 7 98 6 60 -3z m-735
-40 c-21 -22 -41 -37 -44 -35 -6 7 60 75 73 75 6 0 -7 -18 -29 -40z m1400
-130 c3 -5 -7 -12 -22 -16 -42 -10 -114 -49 -144 -77 -95 -87 -145 -272 -120
-436 20 -127 63 -203 127 -220 18 -4 29 -14 29 -25 0 -9 7 -21 15 -26 13 -8
12 -11 -5 -24 -38 -29 -83 -18 -139 33 l-29 26 19 -34 c22 -39 68 -71 102 -71
13 0 20 -4 17 -10 -8 -13 -53 -2 -89 23 -39 27 -83 126 -102 228 -46 241 38
492 196 587 75 44 133 62 145 42z m148 -16 c3 -4 -8 -16 -26 -28 -38 -26 -92
-103 -107 -154 -35 -119 -19 -264 41 -369 l30 -53 -40 0 c-38 0 -43 3 -75 53
-137 206 -45 546 150 556 11 1 23 -2 27 -5z m145 -64 c66 -38 107 -94 134
-183 27 -91 22 -184 -16 -261 -38 -77 -68 -99 -129 -93 -60 5 -110 43 -154
117 -36 59 -45 52 -13 -9 42 -83 150 -150 217 -136 l28 6 -25 -15 c-38 -23
-111 -20 -151 7 -88 59 -141 176 -143 312 -1 116 20 182 80 242 55 54 94 57
172 13z m-2132 -52 c-57 -66 -79 -136 -80 -253 -1 -91 2 -105 29 -160 16 -33
30 -62 32 -65 2 -3 -10 -6 -27 -7 -25 -2 -34 5 -59 40 -92 135 -85 329 17 418
28 25 103 68 120 69 2 0 -13 -19 -32 -42z m70 0 c-33 -45 -66 -124 -82 -195
-9 -40 -18 -73 -21 -73 -3 0 -3 30 0 66 7 76 43 162 83 199 33 31 42 32 20 3z
m1608 -55 c-19 -32 -44 -85 -55 -118 -19 -58 -19 -59 -14 -15 8 57 39 127 72
163 15 15 28 27 29 27 1 0 -13 -26 -32 -57z m25 -77 c-6 -21 -14 -65 -19 -99
l-9 -62 3 75 c2 41 9 87 16 103 18 37 22 29 9 -17z m582 -508 c18 -59 30 -110
27 -113 -3 -4 -15 -1 -26 6 -14 9 -24 35 -36 93 -18 91 -21 145 -7 131 5 -6
24 -58 42 -117z m-590 95 c13 -17 13 -17 -6 -3 -11 8 -22 16 -24 17 -2 2 0 3
6 3 6 0 17 -8 24 -17z m-1652 -67 c21 -69 34 -136 28 -142 -3 -4 -31 8 -61 25
-36 20 -53 26 -50 16 4 -8 1 -15 -5 -15 -16 0 -14 15 15 90 22 54 30 66 45 63
10 -3 22 -19 28 -37z m1956 24 c22 -11 59 -20 82 -20 24 0 43 -4 43 -10 0 -17
22 -11 46 11 l22 20 18 -95 18 -96 -23 -24 c-31 -33 -184 -74 -253 -68 -12 2
-28 37 -58 130 -23 70 -44 132 -46 139 -3 7 11 15 38 21 63 14 70 14 113 -8z
m-114 -276 c10 -39 9 -43 -21 -75 -57 -62 -149 -292 -136 -342 2 -11 -8 -59
-25 -107 -16 -48 -29 -102 -29 -119 0 -22 -11 -43 -34 -69 l-35 -37 -38 36
c-51 49 -73 59 -132 59 -50 0 -67 12 -35 24 11 4 15 17 13 45 -2 27 3 46 14
59 23 25 22 64 -3 112 -11 22 -20 42 -20 46 0 4 49 4 110 1 104 -6 111 -5 134
16 30 26 88 171 140 347 21 69 40 132 43 140 5 15 34 -56 54 -136z m-1814 57
c28 -16 -2 -13 -47 5 -22 9 -40 20 -40 25 0 9 50 -9 87 -30z m-164 -51 c8 -37
84 -83 168 -99 32 -7 59 -16 59 -21 0 -5 -22 -31 -48 -57 -56 -56 -101 -145
-103 -200 l-1 -38 -10 45 c-32 149 -101 230 -198 230 -16 0 -30 3 -30 6 0 12
100 131 122 147 32 22 35 21 41 -13z m2393 8 c5 -8 2 -9 -10 -5 -41 16 -74
-29 -114 -153 -12 -36 -29 -99 -37 -140 -36 -175 -42 -180 -116 -100 -45 49
-47 50 -103 50 -31 0 -73 -7 -93 -15 -20 -8 -38 -14 -39 -12 -7 6 58 163 84
204 28 44 36 50 47 33 9 -15 111 -12 151 5 19 8 63 44 98 80 51 53 68 65 94
65 17 0 34 -5 38 -12z m-231 -78 c-3 -5 -25 -9 -48 -9 l-42 2 40 7 c22 4 44 8
48 9 5 0 5 -3 2 -9z m290 -50 c19 -37 19 -122 0 -188 -16 -54 -42 -75 -31 -24
42 184 40 227 -7 220 -28 -4 -46 -43 -57 -119 -5 -33 -14 -67 -21 -75 -18 -21
-6 -114 17 -131 15 -11 15 -13 2 -13 -64 0 -40 285 29 339 35 28 50 26 68 -9z
m-39 -128 c-7 -34 -19 -68 -26 -75 -10 -10 -12 -7 -7 13 3 14 11 51 17 84 7
32 16 54 20 50 5 -5 3 -37 -4 -72z m-2460 7 c43 -41 59 -95 44 -147 -5 -20
-10 -56 -10 -78 0 -36 6 -47 40 -78 63 -57 93 -49 155 39 19 27 35 45 35 39 0
-32 -121 -164 -151 -164 -9 0 -40 29 -68 65 -28 35 -65 72 -82 80 -18 10 -69
19 -119 22 -73 5 -94 3 -115 -11 -18 -12 -25 -13 -25 -4 0 39 115 234 156 267
34 27 95 14 140 -30z m268 -49 c-28 -81 -2 -131 36 -68 11 18 20 26 20 18 0
-28 -31 -61 -53 -58 -18 2 -23 11 -25 45 -2 22 4 58 13 79 21 50 28 39 9 -16z
m1421 -11 c11 -11 -27 -12 -102 -3 -30 4 -50 11 -47 16 8 12 134 1 149 -13z
m382 -106 c-20 -2 -52 -2 -70 0 -17 2 0 4 38 4 39 0 53 -2 32 -4z m77 -44 c37
-10 136 -91 136 -111 0 -5 -18 4 -39 21 -21 17 -41 31 -43 31 -2 0 -17 -27
-33 -59 l-28 -59 22 -39 22 -38 -35 40 -34 40 -130 0 -129 0 13 46 c25 82 44
120 67 129 31 12 165 12 211 -1z m-1034 -9 c-37 -12 -478 -12 -485 0 -4 7 82
10 252 9 145 -1 247 -5 233 -9z m-1221 -51 c68 -14 80 -31 56 -76 -17 -30 -23
-34 -48 -29 -16 3 -69 6 -118 6 -89 0 -89 0 -89 26 0 15 12 38 29 55 33 33 79
38 170 18z m1559 4 c-21 -2 -55 -2 -75 0 -21 2 -4 4 37 4 41 0 58 -2 38 -4z
m842 -122 c0 -18 -59 -131 -69 -131 -5 0 -16 12 -25 28 l-17 27 20 -24 c34
-38 24 0 -13 48 l-33 43 29 54 29 53 39 -43 c22 -24 40 -48 40 -55z m-1030 81
c0 -4 -20 -28 -45 -52 l-46 -45 -190 -3 c-199 -4 -219 0 -219 39 0 18 11 19
193 19 179 0 195 1 211 19 10 11 32 22 50 24 17 2 34 5 39 5 4 1 7 -2 7 -6z
m163 -29 c-18 -2 -48 -2 -65 0 -18 2 -4 4 32 4 36 0 50 -2 33 -4z m-6 -60
c-20 -2 -52 -2 -70 0 -17 2 0 4 38 4 39 0 53 -2 32 -4z m-1684 -63 c-3 -11 -9
-17 -14 -15 -10 7 -1 35 11 35 5 0 6 -9 3 -20z m107 0 c0 -5 -7 -7 -15 -4 -8
4 -15 8 -15 10 0 2 7 4 15 4 8 0 15 -4 15 -10z m1370 -6 c0 -4 -12 -21 -27
-38 -16 -17 -35 -42 -43 -55 l-16 -24 -26 52 -27 51 22 5 c12 2 40 6 62 8 22
2 43 4 48 5 4 1 7 -1 7 -4z m244 -41 c-20 -27 -44 -63 -53 -82 l-16 -34 -105
7 c-57 4 -106 9 -108 11 -9 8 41 76 73 101 45 34 76 42 167 43 l78 1 -36 -47z
m422 22 c2 -5 -16 -32 -40 -60 -35 -39 -47 -47 -57 -38 -18 18 46 115 74 111
11 -2 22 -7 23 -13z m194 9 c0 -3 -17 -25 -37 -49 -58 -69 -122 -69 -123 2 0
48 8 53 86 53 41 0 74 -3 74 -6z m-1301 -21 l21 -18 -30 -44 c-17 -24 -30 -48
-30 -53 0 -9 -142 -9 -214 0 l-49 7 48 53 c59 65 71 71 161 71 54 1 77 -3 93
-16z m837 -15 c-21 -4 -51 -17 -66 -28 -32 -23 -90 -130 -90 -167 0 -14 -6
-23 -16 -23 -39 0 24 173 77 213 35 25 89 37 114 24 18 -10 16 -12 -19 -19z
m-1648 -1 c4 -22 -43 -87 -64 -87 -21 0 -17 37 7 77 23 36 51 41 57 10z m-248
-2 c0 -9 -6 -45 -12 -80 -10 -49 -17 -65 -29 -65 -15 0 -16 6 -3 70 7 39 16
75 19 80 9 15 25 12 25 -5z m134 -20 c-1 -17 -11 -53 -23 -81 -21 -48 -23 -50
-57 -46 -38 5 -38 7 -7 82 24 60 43 81 66 78 17 -2 22 -9 21 -33z m2242 -3
c-18 -16 -18 -16 -6 6 6 13 14 21 18 18 3 -4 -2 -14 -12 -24z m114 -37 c0 -28
-54 -137 -80 -160 -20 -18 -21 -18 -43 3 -21 21 -21 23 -4 50 9 15 34 57 54
94 35 64 38 67 55 51 10 -9 18 -26 18 -38z m-1374 13 c-24 -33 -47 -87 -53
-125 -8 -46 -23 -52 -23 -9 0 43 14 82 46 123 28 37 56 46 30 11z m1064 -18
c0 -5 -4 -10 -10 -10 -5 0 -10 5 -10 10 0 6 5 10 10 10 6 0 10 -4 10 -10z
m-1926 -29 c3 -5 -1 -14 -8 -20 -8 -7 -18 -30 -21 -53 -8 -48 -25 -34 -25 21
0 41 38 78 54 52z m1926 -28 c0 -48 -11 -73 -31 -73 -15 0 -19 7 -19 34 0 47
9 66 31 66 14 0 19 -7 19 -27z m99 -15 c-4 -24 -8 -48 -9 -54 0 -6 -12 -9 -28
-6 -28 4 -29 5 -21 45 5 23 8 45 9 50 0 4 13 7 29 7 28 0 28 0 20 -42z m71 2
c-19 -38 -30 -49 -30 -32 0 10 39 72 45 72 3 0 -4 -18 -15 -40z m-270 -4 c0
-18 3 -48 6 -65 4 -19 2 -31 -4 -31 -13 0 -18 18 -28 83 -5 39 -4 47 10 47 12
0 16 -9 16 -34z m-670 -3 c0 -41 -48 -98 -67 -80 -8 9 41 87 55 87 6 0 12 -3
12 -7z m-1234 -45 c12 -61 12 -61 -19 -69 -16 -4 -25 -3 -21 2 3 5 -2 9 -10 9
-12 0 -14 5 -6 25 6 14 14 36 20 50 14 37 27 31 36 -17z m822 5 l3 -33 -145 0
c-80 0 -146 2 -146 5 0 4 7 19 15 36 l16 30 127 -3 127 -3 3 -32z m670 0 l3
-33 -120 0 c-67 0 -121 2 -121 5 0 4 7 19 15 36 l16 30 102 -3 102 -3 3 -32z
m-1698 -23 c0 -20 -5 -30 -15 -30 -10 0 -15 10 -15 30 0 20 5 30 15 30 10 0
15 -10 15 -30z m90 11 c0 -23 -28 -54 -41 -46 -10 7 -12 48 -2 58 14 15 43 7
43 -12z m2110 -50 c0 -11 -5 -23 -11 -27 -15 -9 -33 12 -26 30 9 23 37 20 37
-3z m85 -6 c0 -13 -8 -21 -22 -23 -17 -3 -23 2 -23 16 0 10 3 22 7 26 13 13
38 1 38 -19z m93 -9 c3 -12 -1 -17 -10 -14 -7 3 -15 13 -16 22 -3 12 1 17 10
14 7 -3 15 -13 16 -22z"/>
<path d="M2325 3949 c-154 -8 -339 -29 -331 -36 6 -6 550 25 631 36 54 8 49 8
-50 8 -60 0 -173 -3 -250 -8z"/>
<path d="M2574 3725 c-69 -35 -99 -82 -99 -156 1 -44 6 -65 27 -97 30 -45 96
-82 147 -82 109 0 198 133 162 243 -15 45 -68 93 -118 106 -54 15 -63 14 -119
-14z m80 -44 c23 -25 6 -61 -29 -61 -37 0 -51 34 -25 60 25 25 32 25 54 1z
m54 -168 c-4 -23 -48 -31 -48 -10 0 9 6 18 13 20 25 11 38 7 35 -10z"/>
<path d="M1970 3687 c-51 -27 -90 -90 -90 -147 0 -96 89 -190 179 -190 179 0
232 260 69 339 -57 27 -104 27 -158 -2z m119 -51 c25 -30 -24 -71 -54 -46 -16
13 -20 42 -8 53 11 12 50 8 62 -7z m21 -145 c0 -22 -29 -36 -43 -22 -15 15 0
41 23 41 13 0 20 -7 20 -19z"/>
<path d="M2280 3181 c-58 -4 -104 -9 -102 -13 1 -5 2 -16 3 -25 0 -11 3 -13 6
-5 3 7 25 12 57 12 29 0 108 3 174 7 92 4 122 9 122 20 0 14 -49 15 -260 4z"/>
<path d="M3386 3719 c-38 -30 -56 -76 -56 -144 0 -144 120 -215 182 -108 40
68 32 197 -16 242 -35 33 -76 36 -110 10z m91 -58 c28 -41 31 -126 8 -171 -17
-33 -26 -36 -57 -19 -55 30 -66 186 -14 221 20 14 40 4 63 -31z"/>
<path d="M3462 3594 c0 -27 -3 -61 -7 -75 -6 -18 -4 -21 5 -13 16 16 24 84 12
114 -9 22 -11 18 -10 -26z"/>
<path d="M1932 2600 c-63 -15 -102 -69 -141 -194 -26 -84 -27 -128 -3 -149 17
-15 64 -17 473 -17 433 0 456 1 486 20 38 23 52 49 87 158 33 106 33 127 -3
163 l-29 29 -419 -1 c-230 -1 -433 -5 -451 -9z m876 -26 c12 -8 22 -20 22 -26
0 -6 -12 -2 -27 8 -26 18 -54 19 -458 18 -236 -1 -394 2 -350 5 44 4 240 8
435 9 308 2 359 0 378 -14z m-17 -65 c14 -14 19 -28 15 -42 -3 -12 -6 -29 -6
-37 0 -8 -9 1 -21 20 -38 64 -22 62 -394 60 -187 -1 -347 -1 -355 1 -15 3 312
13 588 17 142 2 153 1 173 -19z m-821 -55 c0 -38 -44 -94 -74 -94 -21 0 -56
36 -56 58 0 27 28 61 63 76 44 18 67 5 67 -40z m771 -13 c71 -72 -9 -193 -107
-161 -40 13 -54 35 -54 82 1 94 98 142 161 79z m-186 9 c-4 -6 -105 -10 -271
-10 -169 0 -264 4 -264 10 0 6 97 10 271 10 177 0 268 -3 264 -10z m-25 -60
c0 -6 -93 -10 -262 -9 -145 1 -249 5 -233 9 46 12 495 12 495 0z m-602 -77
c-2 -14 -11 -17 -33 -15 -37 5 -44 10 -25 22 26 17 62 12 58 -7z m470 10 c-75
-2 -201 -2 -280 0 -79 1 -17 3 137 3 154 0 218 -2 143 -3z"/>
<path d="M1914 2481 c4 -6 -3 -15 -18 -21 -32 -12 -47 -40 -35 -63 12 -21 38
-22 67 -1 30 21 28 87 -2 92 -11 3 -16 0 -12 -7z"/>
<path d="M2628 2440 c-24 -15 -42 -74 -29 -99 14 -25 50 -51 72 -51 10 0 31
12 48 26 25 20 31 34 31 63 0 24 -7 44 -18 54 -20 19 -77 22 -104 7z m70 -42
c3 -18 -32 -43 -48 -33 -14 9 -12 42 3 48 21 9 42 2 45 -15z"/>
<path d="M2520 2085 c0 -12 7 -15 25 -13 14 2 26 8 26 13 0 6 -12 11 -26 13
-18 2 -25 -1 -25 -13z"/>
<path d="M1786 1990 c19 -202 126 -512 191 -556 25 -17 56 -19 271 -24 l243
-5 -26 23 c-25 21 -33 22 -234 22 -200 0 -209 1 -242 23 -60 40 -117 188 -188
487 -18 75 -20 78 -15 30z"/>
<path d="M3631 2541 c-17 -16 -31 -33 -31 -37 0 -4 13 5 30 21 19 18 46 31 72
36 l43 6 -41 2 c-33 1 -48 -5 -73 -28z"/>
<path d="M3750 2556 c0 -3 9 -10 20 -16 11 -6 20 -8 20 -6 0 3 -9 10 -20 16
-11 6 -20 8 -20 6z"/>
<path d="M3571 2449 c-6 -18 -11 -37 -10 -43 0 -6 7 7 15 28 8 22 12 41 10 43
-2 2 -9 -10 -15 -28z"/>
<path d="M3733 2458 c-28 -13 -63 -84 -63 -125 0 -75 57 -183 97 -183 8 0 12
-4 8 -9 -9 -15 13 -23 32 -12 14 8 15 11 3 11 -8 0 0 8 19 17 49 24 75 88 68
164 -10 115 -84 176 -164 137z m110 -56 c43 -74 23 -197 -32 -197 -13 0 -26 6
-29 13 -2 7 2 11 10 10 15 -3 14 1 -7 59 -17 50 -7 89 26 102 21 7 21 8 4 15
-27 10 -67 -23 -79 -65 l-10 -34 -4 34 c-10 98 74 143 121 63z"/>
<path d="M3645 1772 c-76 -19 -88 -34 -58 -70 l18 -22 89 17 c49 10 91 23 93
30 8 21 -25 63 -50 62 -12 0 -53 -8 -92 -17z m100 -10 c-13 -12 -88 -32 -111
-31 -14 1 69 28 116 38 2 1 0 -3 -5 -7z"/>
<path d="M1426 1562 c-3 -6 7 -12 22 -15 25 -5 41 -2 31 7 -12 10 -48 16 -53
8z"/>
<path d="M3510 1370 c0 -5 22 -10 49 -10 28 0 53 5 56 10 4 6 -15 10 -49 10
-31 0 -56 -4 -56 -10z"/>
<path d="M3740 3075 c-11 -13 -10 -19 4 -33 13 -15 16 -42 16 -147 0 -71 2
-126 4 -124 2 2 6 73 7 158 3 155 -3 180 -31 146z"/>
</g>
</svg>